<svg xmlns="http://www.w3.org/2000/svg">
<symbol id="icon-check-square" viewBox="0 0 45.736 40.331">
    <svg xmlns="http://www.w3.org/2000/svg" width="45.736" height="40.331" viewBox="0 0 45.736 40.331">
  <path id="Tracé_71" data-name="Tracé 71" d="M45.735,41.371a4.024,4.024,0,0,0-4.02-4.02H34.569V34.468a4.223,4.223,0,0,0-4.218-4.218H15.384a4.223,4.223,0,0,0-4.218,4.218v2.883H4.02A4.024,4.024,0,0,0,0,41.371v6.342a5.781,5.781,0,0,0,1.787,4.1V66.561a4.024,4.024,0,0,0,4.02,4.02H39.929a4.024,4.024,0,0,0,4.02-4.02V51.814a5.781,5.781,0,0,0,1.787-4.1Zm-31.89-6.9a1.54,1.54,0,0,1,1.538-1.538H30.351a1.54,1.54,0,0,1,1.538,1.538v2.883H13.846ZM2.68,41.371a1.341,1.341,0,0,1,1.34-1.34h37.7a1.341,1.341,0,0,1,1.34,1.34v6.342c0,3.3-6.325,5.987-15.543,6.692V53.162a1.34,1.34,0,0,0-1.34-1.34h-6.61a1.34,1.34,0,0,0-1.34,1.34V54.4C9.013,53.7,2.68,51,2.68,47.713ZM24.833,54.5v1.742a1.744,1.744,0,0,1-1.742,1.742h-.447a1.744,1.744,0,0,1-1.744-1.74V54.5Zm15.1,13.4H5.806a1.341,1.341,0,0,1-1.34-1.34V53.781c3.99,2.044,8.183,2.833,13.84,3.317a4.429,4.429,0,0,0,4.338,3.567h.447A4.429,4.429,0,0,0,27.429,57.1,41.131,41.131,0,0,0,39.4,54.655a18.24,18.24,0,0,0,1.867-.875V66.561A1.341,1.341,0,0,1,39.929,67.9Z" transform="translate(0 -30.25)" fill="#28a951"/>
</svg>

</symbol>
<symbol id="icon-check-list" viewBox="0 0 37.999 38.001">
 <svg xmlns="http://www.w3.org/2000/svg" width="37.999" height="38.001" viewBox="0 0 37.999 38.001">
  <path id="Tracé_74" data-name="Tracé 74" d="M35.358,25.148a5.615,5.615,0,0,1,0,7.929l-2.28,2.28a5.605,5.605,0,0,1-7.927,0L19.562,29.77a.771.771,0,1,1,1.09-1.09l5.589,5.587a4.163,4.163,0,0,0,5.749,0l2.28-2.28a4.073,4.073,0,0,0,0-5.749l-.418-.418L30.977,28.7a.771.771,0,1,1-1.091-1.09l2.874-2.88-3.452-3.452-2.874,2.874a.771.771,0,0,1-1.09-1.09l3.419-3.419a.771.771,0,0,1,1.09,0l5.5,5.5ZM7.229,17.436a.771.771,0,1,0,1.091-1.09L2.732,10.758a4.073,4.073,0,0,1,0-5.749l2.28-2.28a4.163,4.163,0,0,1,5.749,0l.8.8L8.69,6.406A.773.773,0,1,0,9.782,7.5l2.874-2.874,3.066,3.066-2.874,2.874a.771.771,0,0,0,1.09,1.09l3.419-3.419a.771.771,0,0,0,0-1.09l-5.508-5.5a5.739,5.739,0,0,0-7.929,0L1.64,3.921a5.614,5.614,0,0,0,0,7.929l5.59,5.586Zm28.283-8.77L9.766,34.412A8.768,8.768,0,0,1,3.524,37H.771A.771.771,0,0,1,0,36.228V33.476a8.774,8.774,0,0,1,2.587-6.244L28.331,1.486a5.077,5.077,0,0,1,7.181,7.18Zm-6.6,4.415-5-5L3.677,28.322a7.241,7.241,0,0,0-2.135,5.154v1.981H3.524a7.234,7.234,0,0,0,5.152-2.135Zm6.541-8a3.537,3.537,0,0,0-6.037-2.5l-4.41,4.411,5,5,4.415-4.415a3.509,3.509,0,0,0,1.036-2.5Z" transform="translate(0.5 0.501)" fill="#28a951" stroke="#28a951" stroke-width="1"/>
</svg>

</symbol>
<symbol id="icon-building" viewBox="0 0 37.543 44.496">
 
<svg xmlns="http://www.w3.org/2000/svg" width="37.543" height="44.496" viewBox="0 0 37.543 44.496">
  <g id="Groupe_59" data-name="Groupe 59" transform="translate(-40 0)">
    <path id="Tracé_73" data-name="Tracé 73" d="M76.471,7.2,59.438.133a1.738,1.738,0,0,0-1.333,0L41.072,7.2A1.738,1.738,0,0,0,40,8.81v8.6A29.109,29.109,0,0,0,58.12,44.369a1.738,1.738,0,0,0,1.309,0,29.107,29.107,0,0,0,18.114-26.96V8.81a1.738,1.738,0,0,0-1.072-1.6Zm-2.4,10.2a25.637,25.637,0,0,1-15.3,23.463,25.638,25.638,0,0,1-15.3-23.463V9.971l15.3-6.351,15.3,6.351ZM56.85,23.266,64.321,15.8a1.738,1.738,0,1,1,2.458,2.458l-8.7,8.7a1.738,1.738,0,0,1-2.458,0L50.764,22.1a1.738,1.738,0,0,1,2.458-2.458Z" fill="#28a951"/>
  </g>
</svg>

</symbol>
<symbol id="icon-calendar-check" viewBox="0 0 43.067 43.07">
   <svg xmlns="http://www.w3.org/2000/svg" width="43.067" height="43.07" viewBox="0 0 43.067 43.07">
  <g id="Groupe_58" data-name="Groupe 58" transform="translate(0.684 0.696)">
    <g id="Groupe_57" data-name="Groupe 57" transform="translate(0.009)">
      <path id="Tracé_72" data-name="Tracé 72" d="M40.877,18.524l-5.059-5.059a6.281,6.281,0,1,0-7.6-7.6L23.164.81a2.781,2.781,0,0,0-3.924,0L11.8,8.251a.77.77,0,0,0,0,1.089l.891.891a.77.77,0,0,0,.7.211,3.738,3.738,0,1,1-3.008,3.666,3.644,3.644,0,0,1,.072-.729.773.773,0,0,0-.211-.7l-.892-.891a.771.771,0,0,0-1.09,0l-7.44,7.44a2.781,2.781,0,0,0,0,3.924l5.057,5.057a6.282,6.282,0,1,0,7.6,7.6l5.057,5.058a2.781,2.781,0,0,0,3.924,0l7.44-7.44a.771.771,0,0,0,0-1.09l-.9-.889a.771.771,0,0,0-.7-.211A3.735,3.735,0,1,1,31.244,28.3a.768.768,0,0,0,.212.693l.891.891a.772.772,0,0,0,1.09,0l7.44-7.441a2.782,2.782,0,0,0,0-3.924Zm-1.09,2.834-6.894,6.894-.074-.074a5.311,5.311,0,1,0-4.633,4.633l.074.074-6.894,6.894a1.239,1.239,0,0,1-1.744,0l-6.186-6.186a.771.771,0,0,0-1.316.555q0,.09,0,.156a4.74,4.74,0,1,1-4.738-4.736h.145A.771.771,0,0,0,8.1,28.254L1.909,22.068a1.24,1.24,0,0,1,0-1.744L8.8,13.43l.073.073a5.384,5.384,0,0,0-.039.609,5.316,5.316,0,1,0,4.672-5.241l-.07-.071,6.895-6.9a1.239,1.239,0,0,1,1.744,0l6.186,6.186a.771.771,0,0,0,1.315-.576q0-.062,0-.136a4.741,4.741,0,1,1,4.738,4.736H34.17a.771.771,0,0,0-.568,1.315l6.187,6.187a1.241,1.241,0,0,1,0,1.745Z" transform="translate(-0.009)" fill="#28a951" stroke="#28a951" stroke-width="1"/>
    </g>
  </g>
</svg>

</symbol>
<symbol id="icon-phone"  viewBox="0 0 19.394 19.383">
  <svg xmlns="http://www.w3.org/2000/svg" width="19.394" height="19.383" viewBox="0 0 19.394 19.383">
  <g id="Groupe_26" data-name="Groupe 26" transform="translate(0.008)">
    <path id="Tracé_49" data-name="Tracé 49" d="M13.219,7.767a.678.678,0,0,1-.727-.606A3.485,3.485,0,0,0,9.706,4.375.959.959,0,0,1,9.1,3.406a.959.959,0,0,1,.969-.606,5.392,5.392,0,0,1,2.544,1.454A4.357,4.357,0,0,1,13.946,6.8a.834.834,0,0,1-.606.969Z" transform="translate(1.926 0.592)"/>
    <path id="Tracé_50" data-name="Tracé 50" d="M16.711,8.359a.7.7,0,0,1-.727-.727A6.83,6.83,0,0,0,9.927,1.575.8.8,0,0,1,9.2.727.7.7,0,0,1,9.927,0a9.1,9.1,0,0,1,5.088,2.423,8.737,8.737,0,0,1,2.423,5.088.885.885,0,0,1-.727.848Z" transform="translate(1.947)"/>
    <path id="Tracé_51" data-name="Tracé 51" d="M15.993,19.236h-.242A16.223,16.223,0,0,1,8,16.449a16.02,16.02,0,0,1-5.33-5.33A17.437,17.437,0,0,1,0,3.365H0A2.455,2.455,0,0,1,2.3.7H5.09A2.585,2.585,0,0,1,7.634,2.881h0A7.354,7.354,0,0,0,8.24,5.061a2.734,2.734,0,0,1-.727,2.665h0l-.606.606a12.6,12.6,0,0,0,4,4l.606-.606h0a2.68,2.68,0,0,1,2.665-.606,14.648,14.648,0,0,0,2.181.606h0a2.51,2.51,0,0,1,2.181,2.544v2.544a2.459,2.459,0,0,1-2.544,2.423Zm0-1.575h0a.892.892,0,0,0,.969-.969V14.147h0a1.028,1.028,0,0,0-.848-.969,19.365,19.365,0,0,1-2.544-.606.942.942,0,0,0-.969.242l-1.09,1.09a.915.915,0,0,1-.969.121A14.713,14.713,0,0,1,5.09,8.575a.8.8,0,0,1,.242-.848l1.09-1.09a1.068,1.068,0,0,0,.242-.969A9.625,9.625,0,0,1,5.938,3a.81.81,0,0,0-.848-.727H2.425a.936.936,0,0,0-.848.969,14.519,14.519,0,0,0,2.544,7.027h0a15.422,15.422,0,0,0,4.846,4.846h0A14.519,14.519,0,0,0,15.993,17.661Z" transform="translate(0 0.148)"/>
  </g>
</svg>

</symbol>
<symbol id="icon-email"   viewBox="0 0 23.766 17.225">
 <svg xmlns="http://www.w3.org/2000/svg" xmlns:xlink="http://www.w3.org/1999/xlink" width="23.766" height="17.225" viewBox="0 0 23.766 17.225">
  <defs>
    <clipPath id="clip-path">
      <rect id="Rectangle_53" data-name="Rectangle 53" width="23.766" height="17.225" fill="none"/>
    </clipPath>
  </defs>
  <g id="Groupe_28" data-name="Groupe 28" transform="translate(2)">
    <g id="Groupe_27" data-name="Groupe 27" transform="translate(-2)" clip-path="url(#clip-path)">
      <path id="Tracé_53" data-name="Tracé 53" d="M464.413,43.3c-.318.136-6.895,6.714-7.143,7.116.232.4,6.8,6.978,7.142,7.119Z" transform="translate(-441.478 -41.806)" fill="none" stroke="#000" stroke-miterlimit="10" stroke-width="0.5"/>
      <path id="Tracé_55" data-name="Tracé 55" d="M66.624,274.145l-7.094-7.172c-.909.526-1.877,2.4-3.175,2.435-1.414.035-2.376-1.877-3.254-2.407l-7.176,7.108Z" transform="translate(-44.339 -257.753)" fill="none" stroke="#000" stroke-miterlimit="10" stroke-width="0.5"/>
      <path id="Tracé_56" data-name="Tracé 56" d="M1.084,1.588C1.4,1.758,8.1,8.427,8.372,8.853c-.286.485-7.119,7.184-7.306,7.269Zm8.3,7.1C8.219,7.521,2.05,1.459,1.862,1.072c6.782,0,13.949-.079,20.668.01-.183.338-4.39,4.465-5.022,5.1-.874.875-1.671,1.68-2.549,2.552-2.669,2.65-2.465,3.062-4.324,1.2L9.386,8.688M12.258,11.9c1.3-.032,2.266-1.908,3.175-2.435l7.094,7.172L1.827,16.6,9,9.489c.878.53,1.84,2.442,3.254,2.407M22.48.25H1.769A1.523,1.523,0,0,0,.25,1.769v14.17a1.523,1.523,0,0,0,1.519,1.519H22.48A1.523,1.523,0,0,0,24,15.939V1.769A1.523,1.523,0,0,0,22.48.25m-6.447,8.6c.248-.4,6.825-6.98,7.143-7.116V15.973c-.344-.142-6.909-6.715-7.142-7.119" transform="translate(-0.241 -0.241)" fill-rule="evenodd"/>
      <path id="Tracé_57" data-name="Tracé 57" d="M1.084,1.588C1.4,1.758,8.1,8.427,8.372,8.853c-.286.485-7.119,7.184-7.306,7.269Zm8.3,7.1C8.219,7.521,2.05,1.459,1.862,1.072c6.782,0,13.949-.079,20.668.01-.183.338-4.39,4.465-5.022,5.1-.874.875-1.671,1.68-2.549,2.552-2.669,2.65-2.465,3.062-4.324,1.2ZM12.258,11.9c1.3-.032,2.266-1.908,3.175-2.435l7.094,7.172L1.827,16.6,9,9.489C9.882,10.02,10.844,11.931,12.258,11.9ZM22.48.25H1.769A1.523,1.523,0,0,0,.25,1.769v14.17a1.523,1.523,0,0,0,1.519,1.519H22.48A1.523,1.523,0,0,0,24,15.939V1.769A1.523,1.523,0,0,0,22.48.25Zm-6.447,8.6c.248-.4,6.825-6.98,7.143-7.116V15.973C22.831,15.831,16.266,9.258,16.033,8.853Z" transform="translate(-0.241 -0.241)" fill="none" stroke="#000" stroke-miterlimit="10" stroke-width="0.5"/>
    </g>
  </g>
</svg> 
</symbol>
<symbol id="icon-email-wh"  viewBox="0 0 32.667 23.669">
   
<svg id="Groupe_32" data-name="Groupe 32" xmlns="http://www.w3.org/2000/svg" xmlns:xlink="http://www.w3.org/1999/xlink" width="32.667" height="23.669" viewBox="0 0 32.667 23.669">
  <defs>
    <clipPath id="clip-path">
      <rect id="Rectangle_55" data-name="Rectangle 55" width="32.667" height="23.669" fill="none"/>
    </clipPath>
  </defs>
  <g id="Groupe_31" data-name="Groupe 31" clip-path="url(#clip-path)">
    <path id="Tracé_59" data-name="Tracé 59" d="M1.146,1.84c.439.233,9.653,9.408,10.025,9.994-.393.667-9.792,9.882-10.05,10Zm11.419,9.766C10.961,10,2.475,1.663,2.217,1.13c9.329.007,19.187-.109,28.429.014-.252.465-6.038,6.142-6.908,7.013-1.2,1.2-2.3,2.311-3.506,3.51-3.671,3.644-3.39,4.212-5.948,1.656-.61-.609-1.107-1.1-1.719-1.717m3.951,4.413c1.784-.044,3.116-2.625,4.367-3.349l9.757,9.866-28.471-.05,9.871-9.777c1.207.73,2.531,3.359,4.476,3.311M30.577,0H2.088A2.1,2.1,0,0,0,0,2.089V21.58a2.1,2.1,0,0,0,2.089,2.089H30.577a2.1,2.1,0,0,0,2.089-2.089V2.089A2.1,2.1,0,0,0,30.577,0M21.709,11.834c.341-.554,9.388-9.6,9.825-9.789V21.627c-.474-.195-9.5-9.236-9.824-9.793" transform="translate(0.001)" fill="#fff" fill-rule="evenodd"/>
    <path id="Tracé_60" data-name="Tracé 60" d="M1.146,1.84c.439.233,9.653,9.408,10.025,9.994-.393.667-9.792,9.882-10.05,10Zm11.419,9.766C10.961,10,2.475,1.663,2.217,1.13c9.329.007,19.187-.109,28.429.014-.252.465-6.038,6.142-6.908,7.013-1.2,1.2-2.3,2.311-3.506,3.51-3.671,3.644-3.39,4.212-5.948,1.656-.61-.609-1.107-1.1-1.719-1.717m3.951,4.413c1.784-.044,3.116-2.625,4.367-3.349l9.757,9.866-28.471-.05,9.871-9.777c1.207.73,2.531,3.359,4.476,3.311M30.577,0H2.088A2.1,2.1,0,0,0,0,2.089V21.58a2.1,2.1,0,0,0,2.089,2.089H30.577a2.1,2.1,0,0,0,2.089-2.089V2.089A2.1,2.1,0,0,0,30.577,0M21.709,11.834c.341-.554,9.388-9.6,9.825-9.789V21.627c-.474-.195-9.5-9.236-9.824-9.793" transform="translate(0.001)" fill="#fff"/>
  </g>
</svg>

</symbol>
  </svg>
 
